<svg width="30" height="30" viewBox="0 0 30 30" fill="none" xmlns="http://www.w3.org/2000/svg">
<rect x="0.683664" y="0.683664" width="28.6327" height="28.6327" rx="14.3163" stroke="#076EFF" stroke-width="1.36733"/>
<g clip-path="url(#clip0_1139_41)">
<path d="M15.5 7.82146C17.7695 7.82146 18.0387 7.82996 18.9347 7.87104C19.8612 7.91354 20.8153 8.12462 21.4904 8.79966C22.1718 9.48108 22.3765 10.426 22.419 11.3553C22.4601 12.2514 22.4686 12.5205 22.4686 14.79C22.4686 17.0595 22.4601 17.3287 22.419 18.2247C22.3772 19.1463 22.1612 20.1096 21.4904 20.7804C20.809 21.4618 19.8648 21.6665 18.9347 21.709C18.0387 21.7501 17.7695 21.7586 15.5 21.7586C13.2305 21.7586 12.9613 21.7501 12.0653 21.709C11.1508 21.6672 10.1747 21.4462 9.50962 20.7804C8.83175 20.1025 8.6235 19.1484 8.581 18.2247C8.53992 17.3287 8.53142 17.0595 8.53142 14.79C8.53142 12.5205 8.53992 12.2514 8.581 11.3553C8.62279 10.4373 8.84096 9.46833 9.50962 8.79966C10.1896 8.11966 11.1381 7.91354 12.0653 7.87104C12.9613 7.82996 13.2305 7.82146 15.5 7.82146ZM15.5 6.29004C13.1915 6.29004 12.9018 6.29996 11.9952 6.34104C10.6812 6.40125 9.37646 6.76675 8.42658 7.71662C7.47317 8.67004 7.11121 9.97196 7.051 11.2852C7.00992 12.1919 7 12.4816 7 14.79C7 17.0985 7.00992 17.3882 7.051 18.2949C7.11121 19.6074 7.47812 20.9157 8.42658 21.8635C9.37929 22.8162 10.6833 23.1788 11.9952 23.239C12.9018 23.2801 13.1915 23.29 15.5 23.29C17.8085 23.29 18.0982 23.2801 19.0048 23.239C20.3181 23.1788 21.6242 22.8126 22.5734 21.8635C23.5275 20.9093 23.8888 19.6081 23.949 18.2949C23.9901 17.3882 24 17.0985 24 14.79C24 12.4816 23.9901 12.1919 23.949 11.2852C23.8888 9.97125 23.5226 8.66579 22.5734 7.71662C21.6221 6.76533 20.3145 6.40054 19.0048 6.34104C18.0982 6.29996 17.8085 6.29004 15.5 6.29004Z" fill="#076EFF"/>
<path d="M15.5 10.4253C13.0895 10.4253 11.1353 12.3796 11.1353 14.79C11.1353 17.2005 13.0895 19.1548 15.5 19.1548C17.9105 19.1548 19.8648 17.2005 19.8648 14.79C19.8648 12.3796 17.9105 10.4253 15.5 10.4253ZM15.5 17.6234C13.9353 17.6234 12.6667 16.3548 12.6667 14.79C12.6667 13.2253 13.9353 11.9567 15.5 11.9567C17.0647 11.9567 18.3333 13.2253 18.3333 14.79C18.3333 16.3548 17.0647 17.6234 15.5 17.6234Z" fill="#076EFF"/>
<path d="M20.0376 11.2724C20.6009 11.2724 21.0576 10.8158 21.0576 10.2524C21.0576 9.68909 20.6009 9.23242 20.0376 9.23242C19.4742 9.23242 19.0176 9.68909 19.0176 10.2524C19.0176 10.8158 19.4742 11.2724 20.0376 11.2724Z" fill="#076EFF"/>
</g>
<defs>
<clipPath id="clip0_1139_41">
<rect width="17" height="17" fill="white" transform="translate(7 6.29004)"/>
</clipPath>
</defs>
</svg>
