<svg width="30" height="30" viewBox="0 0 30 30" fill="none" xmlns="http://www.w3.org/2000/svg">
<rect x="0.683664" y="0.683664" width="28.6327" height="28.6327" rx="14.3163" stroke="#076EFF" stroke-width="1.36733"/>
<g clip-path="url(#clip0_1098_8)">
<path d="M24 14.8418C24 19.084 20.8876 22.6009 16.8246 23.2391V17.3153H18.8001L19.1763 14.8645H16.8246V13.2743C16.8246 12.6035 17.1532 11.9504 18.2058 11.9504H19.2747V9.86363C19.2747 9.86363 18.3043 9.69788 17.3771 9.69788C15.4405 9.69788 14.1754 10.8716 14.1754 12.9959V14.8638H12.0228V17.3146H14.1754V23.2384C10.1131 22.5995 7 19.0833 7 14.8418C7 10.1477 10.8059 6.3418 15.5 6.3418C20.1941 6.3418 24 10.147 24 14.8418Z" fill="#076EFF"/>
</g>
<defs>
<clipPath id="clip0_1098_8">
<rect width="17" height="17" fill="white" transform="translate(7 6.29004)"/>
</clipPath>
</defs>
</svg>
