<svg width="30" height="30" viewBox="0 0 30 30" fill="none" xmlns="http://www.w3.org/2000/svg">
<rect x="0.683664" y="0.683664" width="28.6327" height="28.6327" rx="14.3163" stroke="#076EFF" stroke-width="1.36733"/>
<path d="M23.6444 10.6718C23.4489 9.9358 22.873 9.35567 22.1413 9.15876C20.816 8.80176 15.5 8.80176 15.5 8.80176C15.5 8.80176 10.184 8.80176 8.85796 9.15876C8.12696 9.35567 7.55108 9.93509 7.35558 10.6718C7 12.0063 7 14.79 7 14.79C7 14.79 7 17.5738 7.35558 18.9083C7.55108 19.6442 8.12696 20.2243 8.85867 20.4213C10.184 20.7783 15.5 20.7783 15.5 20.7783C15.5 20.7783 20.816 20.7783 22.142 20.4213C22.873 20.2243 23.4489 19.6449 23.6451 18.9083C24 17.5738 24 14.79 24 14.79C24 14.79 24 12.0063 23.6444 10.6718ZM13.7617 17.3181V12.262L18.2044 14.79L13.7617 17.3181Z" fill="#076EFF"/>
</svg>
