<svg width="30" height="30" viewBox="0 0 30 30" fill="none" xmlns="http://www.w3.org/2000/svg">
<rect x="0.683664" y="0.683664" width="28.6327" height="28.6327" rx="14.3163" stroke="#076EFF" stroke-width="1.36733"/>
<g clip-path="url(#clip0_1098_23)">
<path d="M20.6331 20.6337H18.2622V16.9207C18.2622 16.0353 18.2464 14.8959 17.0291 14.8959C15.7944 14.8959 15.6051 15.8602 15.6051 16.8569V20.6337H13.2351V12.9981H15.5113V14.0412H15.5428C16.0072 13.248 16.8698 12.7741 17.7884 12.808C20.1915 12.808 20.6339 14.3889 20.6339 16.4445L20.6331 20.6337ZM10.5598 11.9541C9.79978 11.9541 9.184 11.3383 9.184 10.5782C9.184 9.81813 9.79978 9.20233 10.5598 9.20233C11.3199 9.20233 11.9357 9.81813 11.9357 10.5782C11.9357 11.3383 11.3199 11.9541 10.5598 11.9541ZM11.7449 20.6337H9.37166V12.9981H11.7449V20.6337ZM21.815 7.0009H8.18031C7.53615 6.9938 7.00788 7.51025 7 8.15444V21.8456C7.00788 22.4906 7.53615 23.007 8.18031 22.9999H21.815C22.4607 23.0078 22.9913 22.4913 23 21.8456V8.15365C22.9905 7.50789 22.4599 6.99143 21.815 7.00011" fill="#076EFF"/>
</g>
<defs>
<clipPath id="clip0_1098_23">
<rect width="16" height="16" fill="white" transform="translate(7 7)"/>
</clipPath>
</defs>
</svg>
