<svg width="30" height="30" viewBox="0 0 30 30" fill="none" xmlns="http://www.w3.org/2000/svg">
<rect x="0.683664" y="0.683664" width="28.6327" height="28.6327" rx="14.3163" stroke="#076EFF" stroke-width="1.36733"/>
<g clip-path="url(#clip0_1098_23)">
<path d="M20.0296 19.8858H17.9127V16.5707C17.9127 15.7801 17.8986 14.7628 16.8117 14.7628C15.7093 14.7628 15.5403 15.6238 15.5403 16.5137V19.8858H13.4242V13.0683H15.4566V13.9997H15.4847C15.8994 13.2915 16.6695 12.8684 17.4896 12.8986C19.6353 12.8986 20.0303 14.3102 20.0303 16.1455L20.0296 19.8858ZM11.0356 12.1362C10.357 12.1362 9.80718 11.5864 9.80718 10.9077C9.80718 10.2291 10.357 9.67925 11.0356 9.67925C11.7142 9.67925 12.264 10.2291 12.264 10.9077C12.264 11.5864 11.7142 12.1362 11.0356 12.1362ZM12.0937 19.8858H9.97473V13.0683H12.0937V19.8858ZM21.0848 7.71369H8.91102C8.33588 7.70735 7.86422 8.16847 7.85718 8.74364V20.9679C7.86422 21.5437 8.33588 22.0049 8.91102 21.9985H21.0848C21.6614 22.0056 22.1351 21.5444 22.1429 20.9679V8.74294C22.1344 8.16636 21.6607 7.70524 21.0848 7.71299" fill="#076EFF"/>
</g>
<defs>
<clipPath id="clip0_1098_23">
<rect width="14.2857" height="14.2857" fill="white" transform="translate(7.85718 7.71289)"/>
</clipPath>
</defs>
</svg>
