<svg width="30" height="30" viewBox="0 0 30 30" fill="none" xmlns="http://www.w3.org/2000/svg">
<rect x="0.683664" y="0.683664" width="28.6327" height="28.6327" rx="14.3163" stroke="#076EFF" stroke-width="1.36733"/>
<g clip-path="url(#clip0_1098_26)">
<path d="M23 18.3207C23.0047 18.578 22.8613 18.814 22.6313 18.9293L20.1633 20.1633L18.9293 22.6313C18.816 22.8573 18.5847 23 18.3327 23H18.32C18.0627 22.9953 17.832 22.8433 17.7253 22.6093L15.096 16.826C14.906 16.2813 15.0273 15.7547 15.3907 15.392C15.7533 15.0287 16.28 14.9087 16.7653 15.0727C16.7853 15.08 22.6087 17.726 22.6087 17.726C22.8427 17.832 22.9953 18.0633 23 18.3207ZM15.762 21.352C16.0147 21.6487 16.0713 22.0653 15.908 22.4193C15.744 22.7733 15.39 23 15 23C10.5887 23 7 19.4113 7 15C7 10.618 10.6287 7.04667 15 7C19.4113 7 23 10.5887 23 15C23 15.5527 22.5527 16 22 16C21.4473 16 21 15.5527 21 15C21 12.436 19.38 10.248 17.112 9.39133C17.6013 10.2907 18.106 11.438 18.4013 12.742C18.57 13.4873 17.8347 14.122 17.112 13.8747C16.7847 13.7627 16.5267 13.496 16.4493 13.1593C16.1267 11.7513 15.504 10.546 15.0013 9.73533C14.2887 10.8867 13.3333 12.8333 13.3333 15C13.3333 18.4587 15.7373 21.3233 15.762 21.352ZM9.09 14H11.3853C11.5733 12.1767 12.2413 10.5707 12.884 9.39267C10.92 10.1367 9.44867 11.8787 9.09 14ZM12.8873 20.616C12.244 19.438 11.5793 17.826 11.3907 16H9.08533C9.44333 18.124 10.92 19.8733 12.8873 20.616Z" fill="#076EFF"/>
</g>
<defs>
<clipPath id="clip0_1098_26">
<rect width="16" height="16" fill="white" transform="translate(7 7)"/>
</clipPath>
</defs>
</svg>
