<svg width="30" height="30" viewBox="0 0 30 30" fill="none" xmlns="http://www.w3.org/2000/svg">
<rect x="0.683664" y="0.683664" width="28.6327" height="28.6327" rx="14.3163" stroke="#076EFF" stroke-width="1.36733"/>
<g clip-path="url(#clip0_1098_26)">
<path d="M22.0169 18.2269C22.0211 18.4566 21.8931 18.6674 21.6877 18.7703L19.4842 19.8721L18.3824 22.0757C18.2812 22.2775 18.0746 22.4049 17.8496 22.4049H17.8383C17.6086 22.4007 17.4026 22.265 17.3074 22.056L14.9598 16.8924C14.7901 16.406 14.8985 15.9358 15.2229 15.612C15.5467 15.2876 16.0169 15.1804 16.4502 15.3269C16.4681 15.3334 21.6675 17.6959 21.6675 17.6959C21.8764 17.7906 22.0127 17.9971 22.0169 18.2269ZM15.5544 20.9334C15.78 21.1983 15.8306 21.5703 15.6848 21.8864C15.5383 22.2025 15.2223 22.4049 14.8741 22.4049C10.9354 22.4049 7.7312 19.2007 7.7312 15.262C7.7312 11.3495 10.9711 8.16081 14.8741 8.11914C18.8127 8.11914 22.0169 11.3233 22.0169 15.262C22.0169 15.7554 21.6175 16.1549 21.1241 16.1549C20.6306 16.1549 20.2312 15.7554 20.2312 15.262C20.2312 12.9727 18.7848 11.0191 16.7598 10.2543C17.1967 11.0572 17.6473 12.0816 17.911 13.2459C18.0616 13.9114 17.405 14.4781 16.7598 14.2572C16.4675 14.1572 16.2371 13.9191 16.1681 13.6185C15.88 12.3614 15.3241 11.2852 14.8752 10.5614C14.2389 11.5894 13.386 13.3275 13.386 15.262C13.386 18.3501 15.5324 20.9078 15.5544 20.9334ZM9.59727 14.3691H11.6467C11.8145 12.7412 12.411 11.3072 12.9848 10.2554C11.2312 10.9197 9.91751 12.4751 9.59727 14.3691ZM12.9877 20.2763C12.4133 19.2245 11.8199 17.7852 11.6514 16.1549H9.59311C9.91275 18.0513 11.2312 19.6132 12.9877 20.2763Z" fill="#076EFF"/>
</g>
<defs>
<clipPath id="clip0_1098_26">
<rect width="14.2857" height="14.2857" fill="white" transform="translate(7.7312 8.11914)"/>
</clipPath>
</defs>
</svg>
