<svg width="469" height="85" viewBox="0 0 469 85" fill="none" xmlns="http://www.w3.org/2000/svg">
<g clip-path="url(#clip0_1018_10)">
<rect width="469" height="84.825" rx="9.85064" fill="#000927"/>
<ellipse cx="120.612" cy="-16.3898" rx="81.1084" ry="55.8934" fill="url(#paint0_radial_1018_10)"/>
<path d="M334.936 -2.41797C334.936 -28.4733 359.066 -26.3721 379.02 -26.3721H388.3V111.05H147.928C208.099 105.587 329.739 75.2441 334.936 -2.41797Z" fill="url(#paint1_linear_1018_10)"/>
<path d="M422.175 -26.3721C429.6 -27.7729 445.099 -27.2121 447.698 -13.7646C450.296 -0.316683 462.702 75.0481 468.58 111.05H388.301V-26.3721H422.175Z" fill="url(#paint2_linear_1018_10)"/>
<path d="M61.0886 37.4692C62.3983 37.4693 63.5502 37.7087 64.5437 38.187C65.5598 38.6427 66.4064 39.338 67.0837 40.272L64.7126 42.6636C64.2384 42.0713 63.6964 41.6267 63.0867 41.3306C62.4771 41.0345 61.7772 40.8863 60.9871 40.8862C60.242 40.8862 59.6659 41.0003 59.2595 41.228C58.853 41.4558 58.6492 41.7864 58.6492 42.2192C58.6492 42.6748 58.853 43.0282 59.2595 43.2788C59.6659 43.5293 60.185 43.7461 60.8171 43.9282C61.472 44.1105 62.1503 44.3157 62.8503 44.5435C63.5727 44.7485 64.2504 45.044 64.8826 45.4312C65.5374 45.7956 66.0679 46.2973 66.4744 46.9351C66.8807 47.5501 67.0837 48.3587 67.0837 49.3608C67.0837 50.9553 66.5308 52.2198 65.4246 53.1538C64.3181 54.0879 62.8156 54.5552 60.9187 54.5552C60.0156 54.5551 59.1465 54.4412 58.3113 54.2134C57.4757 53.9628 56.7076 53.6207 56.0076 53.188C55.3077 52.7323 54.6978 52.1861 54.1785 51.5483L56.5496 49.1558C57.114 49.8164 57.7576 50.3179 58.4802 50.6597C59.2254 50.9786 60.0613 51.1382 60.9871 51.1382C61.8224 51.1382 62.4545 51.0127 62.8835 50.7622C63.3125 50.5116 63.5271 50.1468 63.5271 49.6685C63.527 49.1675 63.324 48.7807 62.9177 48.5073C62.5113 48.234 61.9806 48.0059 61.3259 47.8237C60.6937 47.6187 60.0161 47.4135 59.2937 47.2085C58.5937 47.0034 57.9154 46.7299 57.2605 46.3882C56.6284 46.0237 56.1093 45.5334 55.7029 44.9185C55.2965 44.3034 55.0935 43.5064 55.0935 42.5269C55.0935 41.479 55.3304 40.5794 55.8044 39.8276C56.3013 39.0758 56.9902 38.4946 57.8708 38.0845C58.774 37.6744 59.8467 37.4692 61.0886 37.4692ZM106.139 37.4692C107.381 37.4693 108.476 37.7429 109.425 38.2896C110.082 38.6446 110.647 39.094 111.119 39.6372V37.811H114.844V54.2134H111.119V52.4126C110.661 52.9512 110.108 53.4036 109.459 53.769C108.488 54.293 107.381 54.5551 106.139 54.5552C104.672 54.5552 103.339 54.179 102.142 53.4272C100.968 52.6755 100.031 51.6619 99.3308 50.3862C98.6534 49.0877 98.3142 47.641 98.3142 46.0464C98.3142 44.429 98.6534 42.9823 99.3308 41.7065C100.031 40.4082 100.968 39.3831 102.142 38.6313C103.339 37.8569 104.672 37.4692 106.139 37.4692ZM166.917 47.4106H163.28C163.379 46.9737 163.427 46.5072 163.427 46.0122C163.426 45.0328 163.235 44.1673 162.851 43.4155C162.468 42.6638 161.926 42.0824 161.225 41.6724C160.548 41.2396 159.747 41.024 158.821 41.0239C157.917 41.0239 157.116 41.2397 156.416 41.6724C155.738 42.0823 155.196 42.6638 154.79 43.4155C154.406 44.1673 154.214 45.0328 154.214 46.0122C154.214 46.9918 154.406 47.8581 154.79 48.6099C155.196 49.3614 155.738 49.9535 156.416 50.3862C157.116 50.7962 157.917 51.0015 158.821 51.0015C159.597 51.0014 160.287 50.8574 160.889 50.5688V54.0698C160.08 54.3936 159.187 54.5552 158.211 54.5552C156.743 54.5552 155.41 54.1799 154.214 53.4282C153.04 52.6765 152.103 51.6619 151.403 50.3862C150.726 49.0877 150.386 47.6409 150.386 46.0464C150.387 44.4291 150.726 42.9822 151.403 41.7065C152.103 40.4083 153.04 39.383 154.214 38.6313C155.41 37.8568 156.743 37.4692 158.211 37.4692C159.453 37.4693 160.547 37.743 161.496 38.2896C162.154 38.6445 162.718 39.0941 163.19 39.6372V30.2583H166.917V47.4106ZM89.1921 37.4692C90.3662 37.4693 91.4275 37.7201 92.3757 38.2212C93.324 38.7222 94.0807 39.4283 94.6453 40.3394C95.2097 41.2507 95.4919 42.3449 95.4919 43.6206V54.2134H91.7664V44.4399C91.7663 43.3467 91.4271 42.5038 90.7498 41.9116C90.0725 41.2968 89.2372 40.9889 88.2439 40.9888C87.589 40.9888 86.9899 41.1256 86.448 41.3989C85.906 41.6723 85.477 42.0713 85.1609 42.5952C84.8449 43.0962 84.6873 43.7112 84.6873 44.4399V54.2134H80.9607V44.4399C80.9606 43.3468 80.6223 42.5038 79.9451 41.9116C79.2677 41.2966 78.4317 40.9888 77.4382 40.9888C76.7609 40.9888 76.151 41.1257 75.6091 41.3989C75.0898 41.6723 74.6713 42.0713 74.3552 42.5952C74.0393 43.0962 73.8817 43.7113 73.8816 44.4399V54.2134H70.155V37.811H73.8816V39.4878C74.3202 38.991 74.8394 38.5801 75.4392 38.2554C76.365 37.7314 77.4039 37.4693 78.5554 37.4692C79.707 37.4692 80.7467 37.72 81.6726 38.2212C82.5511 38.6968 83.2569 39.3578 83.7898 40.2026C84.3808 39.3741 85.1197 38.7245 86.0076 38.2554C86.9785 37.7313 88.0405 37.4692 89.1921 37.4692ZM129.07 41.5698H122.706V54.2134H118.979V37.8101H129.07V41.5698ZM136.861 37.811H140.757V41.229H136.861V54.2134H133.135V30.9771H136.861V37.811ZM147.224 54.2134H143.498V37.811H147.224V54.2134ZM106.749 41.0229C105.845 41.023 105.044 41.2395 104.344 41.6724C103.666 42.0824 103.124 42.6638 102.718 43.4155C102.334 44.1672 102.142 45.0329 102.142 46.0122C102.142 46.9918 102.334 47.8581 102.718 48.6099C103.124 49.3614 103.666 49.9534 104.344 50.3862C105.044 50.7962 105.845 51.0015 106.749 51.0015C108.126 51.0015 109.233 50.5341 110.068 49.6001C110.927 48.6661 111.355 47.4702 111.355 46.0122C111.355 45.0326 111.163 44.1673 110.779 43.4155C110.395 42.6638 109.854 42.0824 109.154 41.6724C108.477 41.2395 107.675 41.0229 106.749 41.0229ZM145.361 30.2935C146.016 30.2936 146.546 30.5093 146.953 30.9419C147.359 31.3747 147.562 31.9105 147.562 32.5483C147.562 33.1862 147.359 33.7219 146.953 34.1548C146.546 34.5873 146.016 34.8031 145.361 34.8032C144.729 34.8032 144.198 34.5875 143.769 34.1548C143.363 33.7219 143.159 33.1862 143.159 32.5483C143.159 31.9105 143.363 31.3747 143.769 30.9419C144.198 30.5092 144.729 30.2935 145.361 30.2935Z" fill="#F1F4FF"/>
<path d="M145.361 34.8036C144.729 34.8036 144.197 34.5872 143.769 34.1544C143.363 33.7215 143.159 33.1862 143.159 32.5483C143.159 31.9104 143.363 31.3751 143.769 30.9422C144.197 30.5094 144.729 30.293 145.361 30.293C146.015 30.293 146.547 30.5094 146.953 30.9422C147.36 31.3751 147.562 31.9104 147.562 32.5483C147.562 33.1862 147.36 33.7215 146.953 34.1544C146.547 34.5872 146.015 34.8036 145.361 34.8036Z" fill="#FE4D02"/>
<path d="M294.254 18.3577C293.739 18.3577 293.302 18.2646 292.942 18.0786C292.582 17.8925 292.26 17.6196 291.975 17.2599L292.7 16.5342C292.88 16.7947 293.094 16.9994 293.342 17.1482C293.59 17.2909 293.907 17.3622 294.291 17.3622C294.651 17.3622 294.936 17.2878 295.147 17.1389C295.364 16.9901 295.473 16.7854 295.473 16.5249C295.473 16.3078 295.417 16.1311 295.305 15.9946C295.194 15.8582 295.045 15.7465 294.859 15.6597C294.679 15.5667 294.477 15.486 294.254 15.4178C294.037 15.3434 293.817 15.2628 293.593 15.1759C293.376 15.0829 293.175 14.9681 292.989 14.8317C292.809 14.6952 292.663 14.5185 292.551 14.3014C292.44 14.0843 292.384 13.8083 292.384 13.4734C292.384 13.0889 292.477 12.7632 292.663 12.4965C292.855 12.2237 293.113 12.0159 293.435 11.8732C293.758 11.7306 294.118 11.6592 294.514 11.6592C294.942 11.6592 295.324 11.743 295.659 11.9104C296 12.0779 296.276 12.2919 296.487 12.5524L295.761 13.278C295.575 13.0672 295.38 12.9121 295.175 12.8129C294.977 12.7074 294.747 12.6547 294.487 12.6547C294.164 12.6547 293.91 12.7198 293.724 12.8501C293.544 12.9803 293.454 13.1633 293.454 13.399C293.454 13.5975 293.51 13.7587 293.621 13.8828C293.733 14.0006 293.879 14.1029 294.059 14.1898C294.245 14.2704 294.446 14.3479 294.663 14.4224C294.887 14.4968 295.107 14.5805 295.324 14.6735C295.547 14.7666 295.749 14.8875 295.929 15.0364C296.115 15.179 296.264 15.3651 296.375 15.5946C296.487 15.8241 296.543 16.1125 296.543 16.4598C296.543 17.0428 296.335 17.5049 295.919 17.846C295.51 18.1871 294.955 18.3577 294.254 18.3577ZM300.23 18.3577C299.74 18.3577 299.3 18.246 298.909 18.0228C298.518 17.7995 298.208 17.4956 297.979 17.111C297.756 16.7203 297.644 16.2799 297.644 15.7899V11.7523H298.714V15.7806C298.714 16.097 298.779 16.373 298.909 16.6086C299.046 16.8381 299.229 17.018 299.458 17.1482C299.688 17.2723 299.945 17.3343 300.23 17.3343C300.522 17.3343 300.779 17.2723 301.002 17.1482C301.226 17.018 301.403 16.8381 301.533 16.6086C301.663 16.373 301.728 16.1001 301.728 15.7899V11.7523H302.798V15.7993C302.798 16.2892 302.686 16.7265 302.463 17.111C302.24 17.4956 301.936 17.7995 301.551 18.0228C301.167 18.246 300.726 18.3577 300.23 18.3577ZM304.142 18.2646V11.7523H304.886L307.593 16.2086H307.11L309.817 11.7523H310.561V18.2646H309.491V13.6316L309.733 13.6967L307.724 16.9994H306.979L304.97 13.6967L305.212 13.6316V18.2646H304.142ZM311.973 18.2646V11.7523H312.718L315.425 16.2086H314.941L317.648 11.7523H318.393V18.2646H317.323V13.6316L317.565 13.6967L315.555 16.9994H314.811L312.801 13.6967L313.043 13.6316V18.2646H311.973ZM319.321 18.2646L322 11.7523H322.745L325.405 18.2646H324.252L322.168 12.9896H322.559L320.456 18.2646H319.321ZM320.642 17.0087V16.0784H324.094V17.0087H320.642ZM326.999 15.5015V14.6177H328.646C328.975 14.6177 329.229 14.534 329.409 14.3665C329.595 14.1929 329.688 13.9541 329.688 13.6502C329.688 13.3773 329.598 13.1478 329.418 12.9617C329.239 12.7757 328.984 12.6826 328.655 12.6826H326.999V11.7523H328.702C329.111 11.7523 329.471 11.836 329.781 12.0035C330.091 12.1647 330.33 12.388 330.498 12.6733C330.671 12.9524 330.758 13.2718 330.758 13.6316C330.758 14.0099 330.671 14.3386 330.498 14.6177C330.33 14.8968 330.091 15.1139 329.781 15.269C329.471 15.424 329.111 15.5015 328.702 15.5015H326.999ZM326.265 18.2646V11.7523H327.334V18.2646H326.265ZM329.837 18.2646L327.558 15.4364L328.553 15.0736L331.186 18.2646H329.837ZM333.644 15.6597L331.104 11.7523H332.342L334.323 14.8689H333.746L335.728 11.7523H336.947L334.388 15.6597H333.644ZM333.495 18.2646V14.9899H334.565V18.2646H333.495ZM340.191 15.8086V14.8782H341.819C342.043 14.8782 342.238 14.8348 342.406 14.748C342.579 14.6549 342.716 14.5278 342.815 14.3665C342.914 14.1991 342.964 14.0037 342.964 13.7804C342.964 13.5571 342.914 13.3649 342.815 13.2036C342.716 13.0361 342.579 12.909 342.406 12.8222C342.238 12.7291 342.043 12.6826 341.819 12.6826H340.191V11.7523H341.875C342.285 11.7523 342.651 11.836 342.973 12.0035C343.302 12.1709 343.559 12.4066 343.745 12.7105C343.938 13.0144 344.034 13.3711 344.034 13.7804C344.034 14.1898 343.938 14.5464 343.745 14.8503C343.559 15.1542 343.302 15.3899 342.973 15.5574C342.651 15.7248 342.285 15.8086 341.875 15.8086H340.191ZM339.456 18.2646V11.7523H340.526V18.2646H339.456ZM345.733 15.5015V14.6177H347.38C347.709 14.6177 347.963 14.534 348.143 14.3665C348.329 14.1929 348.422 13.9541 348.422 13.6502C348.422 13.3773 348.332 13.1478 348.152 12.9617C347.972 12.7757 347.718 12.6826 347.389 12.6826H345.733V11.7523H347.436C347.845 11.7523 348.205 11.836 348.515 12.0035C348.825 12.1647 349.064 12.388 349.232 12.6733C349.405 12.9524 349.492 13.2718 349.492 13.6316C349.492 14.0099 349.405 14.3386 349.232 14.6177C349.064 14.8968 348.825 15.1139 348.515 15.269C348.205 15.424 347.845 15.5015 347.436 15.5015H345.733ZM344.998 18.2646V11.7523H346.068V18.2646H344.998ZM348.571 18.2646L346.292 15.4364L347.287 15.0736L349.92 18.2646H348.571ZM353.627 18.3577C353.162 18.3577 352.728 18.2709 352.325 18.0972C351.921 17.9235 351.568 17.6847 351.264 17.3808C350.96 17.0707 350.721 16.7141 350.548 16.3109C350.38 15.9016 350.296 15.4643 350.296 14.9992C350.296 14.534 350.38 14.0998 350.548 13.6967C350.721 13.2935 350.957 12.94 351.255 12.6361C351.559 12.326 351.909 12.0872 352.306 11.9197C352.709 11.7461 353.143 11.6592 353.608 11.6592C354.074 11.6592 354.505 11.7461 354.902 11.9197C355.305 12.0872 355.658 12.326 355.962 12.6361C356.266 12.94 356.502 13.2966 356.669 13.706C356.843 14.1091 356.93 14.5433 356.93 15.0085C356.93 15.4736 356.843 15.9109 356.669 16.3202C356.502 16.7234 356.266 17.0769 355.962 17.3808C355.665 17.6847 355.314 17.9235 354.911 18.0972C354.514 18.2709 354.086 18.3577 353.627 18.3577ZM353.608 17.3343C354.049 17.3343 354.433 17.2351 354.762 17.0366C355.097 16.8381 355.358 16.5652 355.544 16.2179C355.736 15.8644 355.832 15.4581 355.832 14.9992C355.832 14.658 355.776 14.3479 355.665 14.0688C355.559 13.7835 355.407 13.5385 355.209 13.3339C355.01 13.123 354.774 12.9617 354.502 12.8501C354.235 12.7384 353.937 12.6826 353.608 12.6826C353.174 12.6826 352.79 12.7819 352.455 12.9803C352.126 13.1726 351.866 13.4424 351.673 13.7897C351.487 14.137 351.394 14.5402 351.394 14.9992C351.394 15.3403 351.447 15.6566 351.552 15.9481C351.664 16.2334 351.816 16.4784 352.008 16.6831C352.207 16.8877 352.442 17.049 352.715 17.1668C352.988 17.2785 353.286 17.3343 353.608 17.3343ZM359.228 18.2646V11.9383H360.298V18.2646H359.228ZM357.107 12.7291V11.7523H362.419V12.7291H357.107ZM363.351 18.2646V11.7523H364.421V18.2646H363.351ZM364.086 18.2646V17.2878H367.733V18.2646H364.086ZM364.086 15.4085V14.4689H367.416V15.4085H364.086ZM364.086 12.7291V11.7523H367.686V12.7291H364.086ZM371.67 18.3577C371.198 18.3577 370.761 18.274 370.358 18.1065C369.961 17.9328 369.614 17.694 369.316 17.3901C369.018 17.08 368.789 16.7234 368.627 16.3202C368.466 15.9109 368.386 15.4736 368.386 15.0085C368.386 14.5433 368.466 14.1091 368.627 13.706C368.789 13.2966 369.018 12.94 369.316 12.6361C369.614 12.3322 369.961 12.0934 370.358 11.9197C370.761 11.7461 371.198 11.6592 371.67 11.6592C372.197 11.6592 372.653 11.7461 373.037 11.9197C373.422 12.0934 373.763 12.3291 374.061 12.6268L373.335 13.3525C373.143 13.1416 372.907 12.9772 372.628 12.8594C372.355 12.7415 372.036 12.6826 371.67 12.6826C371.347 12.6826 371.053 12.7384 370.786 12.8501C370.519 12.9617 370.287 13.123 370.088 13.3339C369.896 13.5385 369.747 13.7835 369.642 14.0688C369.536 14.3541 369.483 14.6673 369.483 15.0085C369.483 15.3496 369.536 15.6628 369.642 15.9481C369.747 16.2334 369.896 16.4815 370.088 16.6924C370.287 16.8971 370.519 17.0552 370.786 17.1668C371.053 17.2785 371.347 17.3343 371.67 17.3343C372.067 17.3343 372.402 17.2754 372.674 17.1575C372.954 17.0335 373.189 16.866 373.382 16.6552L374.107 17.3808C373.809 17.6847 373.459 17.9235 373.056 18.0972C372.653 18.2709 372.191 18.3577 371.67 18.3577ZM376.572 18.2646V11.9383H377.642V18.2646H376.572ZM374.451 12.7291V11.7523H379.763V12.7291H374.451ZM380.695 18.2646V11.7523H381.765V18.2646H380.695ZM386.171 18.3577C385.706 18.3577 385.271 18.2709 384.868 18.0972C384.465 17.9235 384.112 17.6847 383.808 17.3808C383.504 17.0707 383.265 16.7141 383.091 16.3109C382.924 15.9016 382.84 15.4643 382.84 14.9992C382.84 14.534 382.924 14.0998 383.091 13.6967C383.265 13.2935 383.501 12.94 383.798 12.6361C384.102 12.326 384.453 12.0872 384.85 11.9197C385.253 11.7461 385.687 11.6592 386.152 11.6592C386.617 11.6592 387.048 11.7461 387.445 11.9197C387.848 12.0872 388.202 12.326 388.506 12.6361C388.81 12.94 389.046 13.2966 389.213 13.706C389.387 14.1091 389.473 14.5433 389.473 15.0085C389.473 15.4736 389.387 15.9109 389.213 16.3202C389.046 16.7234 388.81 17.0769 388.506 17.3808C388.208 17.6847 387.858 17.9235 387.455 18.0972C387.058 18.2709 386.63 18.3577 386.171 18.3577ZM386.152 17.3343C386.593 17.3343 386.977 17.2351 387.306 17.0366C387.641 16.8381 387.901 16.5652 388.087 16.2179C388.28 15.8644 388.376 15.4581 388.376 14.9992C388.376 14.658 388.32 14.3479 388.208 14.0688C388.103 13.7835 387.951 13.5385 387.752 13.3339C387.554 13.123 387.318 12.9617 387.045 12.8501C386.779 12.7384 386.481 12.6826 386.152 12.6826C385.718 12.6826 385.333 12.7819 384.999 12.9803C384.67 13.1726 384.409 13.4424 384.217 13.7897C384.031 14.137 383.938 14.5402 383.938 14.9992C383.938 15.3403 383.991 15.6566 384.096 15.9481C384.208 16.2334 384.36 16.4784 384.552 16.6831C384.75 16.8877 384.986 17.049 385.259 17.1668C385.532 17.2785 385.83 17.3343 386.152 17.3343ZM390.561 18.2646V11.7523H391.306L391.631 12.9803V18.2646H390.561ZM395.074 18.2646L391.175 13.1757L391.306 11.7523L395.204 16.8412L395.074 18.2646ZM395.074 18.2646L394.748 17.1203V11.7523H395.818V18.2646H395.074ZM398.646 17.632L401.046 15.0829C401.245 14.872 401.406 14.6828 401.53 14.5154C401.654 14.3479 401.744 14.1898 401.8 14.0409C401.856 13.8921 401.884 13.7401 401.884 13.585C401.884 13.2935 401.787 13.0672 401.595 12.9059C401.409 12.7384 401.17 12.6547 400.879 12.6547C400.569 12.6547 400.296 12.7322 400.06 12.8873C399.824 13.0423 399.614 13.2842 399.428 13.613L398.683 12.9989C398.938 12.5586 399.251 12.2268 399.623 12.0035C399.995 11.774 400.426 11.6592 400.916 11.6592C401.319 11.6592 401.673 11.7399 401.977 11.9011C402.281 12.0624 402.516 12.2888 402.684 12.5803C402.851 12.8656 402.935 13.1974 402.935 13.5757C402.935 13.8486 402.901 14.0936 402.833 14.3107C402.771 14.5216 402.662 14.7356 402.507 14.9526C402.352 15.1635 402.138 15.4116 401.865 15.6969L400.023 17.6041L398.646 17.632ZM398.646 18.2646V17.632L399.567 17.3064H403.065V18.2646H398.646ZM406.48 18.3577C405.99 18.3577 405.54 18.2212 405.131 17.9483C404.727 17.6692 404.405 17.2785 404.163 16.7761C403.921 16.2737 403.8 15.6814 403.8 14.9992C403.8 14.3169 403.918 13.7277 404.154 13.2315C404.396 12.7291 404.718 12.3415 405.121 12.0686C405.524 11.7957 405.971 11.6592 406.461 11.6592C406.957 11.6592 407.407 11.7957 407.81 12.0686C408.213 12.3415 408.533 12.7291 408.768 13.2315C409.01 13.7277 409.131 14.32 409.131 15.0085C409.131 15.6907 409.01 16.283 408.768 16.7854C408.533 17.2878 408.213 17.6754 407.81 17.9483C407.413 18.2212 406.97 18.3577 406.48 18.3577ZM406.461 17.3529C406.784 17.3529 407.063 17.2661 407.298 17.0924C407.534 16.9188 407.717 16.6583 407.847 16.3109C407.984 15.9636 408.052 15.5264 408.052 14.9992C408.052 14.4782 407.984 14.044 407.847 13.6967C407.717 13.3494 407.531 13.092 407.289 12.9245C407.053 12.7508 406.777 12.664 406.461 12.664C406.145 12.664 405.866 12.7508 405.624 12.9245C405.388 13.092 405.205 13.3494 405.075 13.6967C404.945 14.0378 404.879 14.472 404.879 14.9992C404.879 15.5264 404.945 15.9636 405.075 16.3109C405.205 16.6583 405.388 16.9188 405.624 17.0924C405.866 17.2661 406.145 17.3529 406.461 17.3529ZM409.776 17.632L412.176 15.0829C412.374 14.872 412.536 14.6828 412.66 14.5154C412.784 14.3479 412.874 14.1898 412.929 14.0409C412.985 13.8921 413.013 13.7401 413.013 13.585C413.013 13.2935 412.917 13.0672 412.725 12.9059C412.539 12.7384 412.3 12.6547 412.008 12.6547C411.698 12.6547 411.425 12.7322 411.19 12.8873C410.954 13.0423 410.743 13.2842 410.557 13.613L409.813 12.9989C410.067 12.5586 410.38 12.2268 410.752 12.0035C411.125 11.774 411.556 11.6592 412.046 11.6592C412.449 11.6592 412.802 11.7399 413.106 11.9011C413.41 12.0624 413.646 12.2888 413.813 12.5803C413.981 12.8656 414.064 13.1974 414.064 13.5757C414.064 13.8486 414.03 14.0936 413.962 14.3107C413.9 14.5216 413.792 14.7356 413.636 14.9526C413.481 15.1635 413.267 15.4116 412.995 15.6969L411.152 17.6041L409.776 17.632ZM409.776 18.2646V17.632L410.697 17.3064H414.195V18.2646H409.776ZM416.846 18.3577C416.394 18.3577 415.99 18.2802 415.637 18.1251C415.283 17.9638 414.986 17.7313 414.744 17.4273L415.469 16.7017C415.6 16.9002 415.783 17.0583 416.018 17.1762C416.26 17.294 416.53 17.3529 416.828 17.3529C417.101 17.3529 417.339 17.3033 417.544 17.2041C417.749 17.1048 417.91 16.9622 418.028 16.7761C418.146 16.59 418.205 16.3699 418.205 16.1156C418.205 15.8489 418.146 15.6287 418.028 15.455C417.916 15.2752 417.764 15.1418 417.572 15.055C417.386 14.9619 417.184 14.9154 416.967 14.9154C416.719 14.9154 416.496 14.9433 416.297 14.9992C416.105 15.055 415.916 15.1542 415.73 15.2969L415.758 14.627C415.857 14.4968 415.972 14.3913 416.102 14.3107C416.232 14.2239 416.384 14.1588 416.558 14.1153C416.732 14.0719 416.936 14.0502 417.172 14.0502C417.631 14.0502 418.015 14.1463 418.326 14.3386C418.642 14.5309 418.881 14.7883 419.042 15.1108C419.203 15.4271 419.284 15.7806 419.284 16.1714C419.284 16.5931 419.178 16.9684 418.967 17.2971C418.763 17.6258 418.477 17.8863 418.112 18.0786C417.746 18.2646 417.324 18.3577 416.846 18.3577ZM415.73 15.2969L415.144 14.7108L415.432 11.7523H416.409L416.074 14.8317L415.73 15.2969ZM415.618 12.7105L415.432 11.7523H418.921V12.7105H415.618Z" fill="white"/>
<path d="M278.126 34.7449V33.1852H284.323V34.7449H278.126ZM280.438 30.7089H282.025V37.2076H280.438V30.7089ZM287.219 38.5483V28.9303H289.053V38.5483H287.219ZM285.331 30.5447V28.9303H288.916V30.5447H285.331ZM290.396 37.4812L294.022 33.6914C294.277 33.4178 294.482 33.1761 294.637 32.9663C294.802 32.7474 294.92 32.5422 294.993 32.3506C295.066 32.15 295.103 31.9493 295.103 31.7487C295.103 31.3473 294.97 31.0327 294.706 30.8046C294.45 30.5766 294.117 30.4626 293.707 30.4626C293.287 30.4626 292.914 30.5721 292.585 30.791C292.266 31.0099 291.965 31.3565 291.682 31.8307L290.41 30.7499C290.793 30.1023 291.267 29.6144 291.833 29.286C292.407 28.9485 293.064 28.7798 293.803 28.7798C294.432 28.7798 294.979 28.9029 295.445 29.1492C295.919 29.3955 296.284 29.7375 296.539 30.1753C296.794 30.6131 296.922 31.1239 296.922 31.7076C296.922 32.0998 296.872 32.4555 296.772 32.7748C296.68 33.094 296.521 33.4132 296.293 33.7325C296.074 34.0426 295.768 34.3937 295.376 34.7859L292.736 37.4812H290.396ZM290.396 38.5483V37.4812L291.983 36.9339H297.127V38.5483H290.396ZM301.023 38.6852C300.357 38.6852 299.751 38.5711 299.203 38.3431C298.656 38.106 298.2 37.7685 297.835 37.3307L299.067 36.113C299.249 36.3867 299.509 36.6056 299.846 36.7698C300.193 36.9339 300.572 37.016 300.982 37.016C301.356 37.016 301.68 36.9476 301.953 36.8108C302.236 36.674 302.455 36.4824 302.61 36.2362C302.774 35.9808 302.856 35.6844 302.856 35.3469C302.856 34.9912 302.774 34.6902 302.61 34.4439C302.455 34.1976 302.245 34.0107 301.981 33.883C301.716 33.7553 301.42 33.6914 301.091 33.6914C300.745 33.6914 300.43 33.737 300.147 33.8282C299.874 33.9103 299.609 34.0471 299.354 34.2387L299.463 33.0621C299.637 32.8797 299.819 32.7337 300.011 32.6243C300.202 32.5057 300.416 32.4191 300.654 32.3643C300.9 32.3005 301.187 32.2686 301.516 32.2686C302.218 32.2686 302.802 32.4145 303.267 32.7064C303.741 32.9891 304.101 33.3722 304.348 33.8556C304.594 34.3299 304.717 34.8543 304.717 35.429C304.717 36.0583 304.562 36.6193 304.252 37.1118C303.942 37.6043 303.508 37.992 302.952 38.2747C302.405 38.5483 301.762 38.6852 301.023 38.6852ZM299.354 34.2387L298.465 33.3631L298.902 28.9303H300.585L300.093 33.4315L299.354 34.2387ZM299.19 30.5447L298.902 28.9303H304.183V30.5447H299.19ZM306.15 38.5483V28.9303H307.463L311.363 35.169H310.61L314.496 28.9303H315.809V38.5483H313.962V32.1181L314.318 32.2275L311.609 36.5782H310.35L307.641 32.2275L308.011 32.1181V38.5483H306.15ZM317.774 38.5483V28.9303H319.087L322.986 35.169H322.234L326.119 28.9303H327.433V38.5483H325.586V32.1181L325.942 32.2275L323.233 36.5782H321.974L319.265 32.2275L319.634 32.1181V38.5483H317.774Z" fill="#076EFF"/>
<path d="M334.237 38.5483V29.1355H336.111V38.5483H334.237ZM331.172 30.5857V28.9303H339.176V30.5857H331.172ZM341.829 34.526V33.0758H344.059C344.515 33.0758 344.866 32.9617 345.112 32.7337C345.367 32.4966 345.495 32.1728 345.495 31.7623C345.495 31.3884 345.367 31.0783 345.112 30.832C344.866 30.5766 344.515 30.4489 344.059 30.4489H341.829V28.9303H344.223C344.843 28.9303 345.386 29.0534 345.851 29.2997C346.325 29.5368 346.69 29.8652 346.945 30.2847C347.21 30.7043 347.342 31.1877 347.342 31.735C347.342 32.3005 347.21 32.793 346.945 33.2126C346.69 33.623 346.325 33.9468 345.851 34.184C345.377 34.412 344.825 34.526 344.195 34.526H341.829ZM340.46 38.5483V28.9303H342.321V38.5483H340.46ZM345.714 38.5483L342.54 34.3892L344.25 33.8556L347.972 38.5483H345.714ZM348.006 38.5483L351.878 28.9303H353.396L357.255 38.5483H355.271L352.288 30.6541H352.972L349.949 38.5483H348.006ZM350.058 36.7561V35.1964H355.23V36.7561H350.058ZM358.391 38.5483V28.9303H359.69L360.251 30.791V38.5483H358.391ZM365.04 38.5483L359.335 31.1604L359.69 28.9303L365.395 36.3183L365.04 38.5483ZM365.04 38.5483L364.506 36.7424V28.9303H366.381V38.5483H365.04ZM370.935 38.6852C370.16 38.6852 369.494 38.5529 368.937 38.2884C368.39 38.0239 367.893 37.6271 367.446 37.0981L368.678 35.8668C368.96 36.2407 369.289 36.5326 369.663 36.7424C370.037 36.943 370.493 37.0434 371.031 37.0434C371.514 37.0434 371.897 36.9476 372.18 36.7561C372.472 36.5645 372.618 36.3 372.618 35.9625C372.618 35.6707 372.536 35.4335 372.372 35.2511C372.207 35.0687 371.988 34.9136 371.715 34.7859C371.45 34.6582 371.154 34.5442 370.826 34.4439C370.506 34.3345 370.182 34.2113 369.854 34.0745C369.535 33.9377 369.238 33.769 368.965 33.5683C368.7 33.3585 368.486 33.094 368.322 32.7748C368.158 32.4464 368.076 32.036 368.076 31.5434C368.076 30.9597 368.217 30.4626 368.5 30.0522C368.782 29.6417 369.17 29.327 369.663 29.1081C370.155 28.8892 370.712 28.7798 371.332 28.7798C371.988 28.7798 372.581 28.9029 373.11 29.1492C373.639 29.3955 374.073 29.7147 374.41 30.1069L373.179 31.3382C372.896 31.0281 372.604 30.8001 372.303 30.6541C372.011 30.5082 371.678 30.4352 371.304 30.4352C370.876 30.4352 370.538 30.5173 370.292 30.6815C370.046 30.8457 369.923 31.0828 369.923 31.3929C369.923 31.6575 370.005 31.8718 370.169 32.036C370.333 32.2001 370.547 32.3415 370.812 32.4601C371.085 32.5787 371.382 32.6927 371.701 32.8021C372.029 32.9116 372.353 33.0347 372.673 33.1715C373.001 33.3083 373.297 33.4862 373.562 33.7051C373.835 33.924 374.054 34.2068 374.219 34.5534C374.383 34.8908 374.465 35.3104 374.465 35.8121C374.465 36.7059 374.15 37.4082 373.521 37.919C372.891 38.4298 372.029 38.6852 370.935 38.6852ZM374.928 38.5483L378.8 28.9303H380.318L384.177 38.5483H382.193L379.21 30.6541H379.894L376.871 38.5483H374.928ZM376.98 36.7561V35.1964H382.152V36.7561H376.98ZM389.225 38.6852C388.523 38.6852 387.87 38.562 387.268 38.3158C386.667 38.0604 386.137 37.7092 385.681 37.2623C385.235 36.8062 384.888 36.2772 384.642 35.6752C384.405 35.0733 384.286 34.4257 384.286 33.7325C384.286 33.0393 384.405 32.3917 384.642 31.7897C384.888 31.1877 385.235 30.6633 385.681 30.2163C386.137 29.7694 386.662 29.4183 387.255 29.1629C387.857 28.9075 388.513 28.7798 389.225 28.7798C389.991 28.7798 390.666 28.9075 391.25 29.1629C391.834 29.4091 392.349 29.7512 392.796 30.189L391.537 31.4477C391.273 31.1558 390.949 30.9278 390.566 30.7636C390.183 30.5994 389.736 30.5173 389.225 30.5173C388.778 30.5173 388.368 30.5949 387.994 30.7499C387.629 30.8959 387.31 31.1148 387.036 31.4066C386.762 31.6894 386.552 32.0314 386.407 32.4327C386.261 32.8249 386.188 33.2582 386.188 33.7325C386.188 34.2159 386.261 34.6537 386.407 35.0459C386.552 35.4381 386.762 35.7801 387.036 36.072C387.31 36.3547 387.629 36.5737 387.994 36.7287C388.368 36.8838 388.778 36.9613 389.225 36.9613C389.763 36.9613 390.224 36.8792 390.607 36.715C390.999 36.5508 391.327 36.3183 391.592 36.0173L392.851 37.276C392.404 37.7229 391.884 38.0695 391.291 38.3158C390.698 38.562 390.009 38.6852 389.225 38.6852ZM396.364 38.5483V29.1355H398.239V38.5483H396.364ZM393.3 30.5857V28.9303H401.303V30.5857H393.3ZM402.588 38.5483V28.9303H404.449V38.5483H402.588ZM410.924 38.6988C410.221 38.6988 409.565 38.5711 408.954 38.3158C408.352 38.0604 407.823 37.7092 407.367 37.2623C406.92 36.8062 406.569 36.2772 406.313 35.6752C406.058 35.0641 405.93 34.412 405.93 33.7188C405.93 33.0256 406.053 32.3826 406.299 31.7897C406.555 31.1877 406.906 30.6633 407.353 30.2163C407.809 29.7603 408.338 29.4091 408.94 29.1629C409.542 28.9075 410.194 28.7798 410.896 28.7798C411.608 28.7798 412.265 28.9075 412.867 29.1629C413.469 29.4091 413.993 29.7603 414.44 30.2163C414.896 30.6633 415.252 31.1877 415.507 31.7897C415.762 32.3917 415.89 33.0393 415.89 33.7325C415.89 34.4257 415.762 35.0733 415.507 35.6752C415.252 36.2772 414.896 36.8062 414.44 37.2623C413.993 37.7092 413.469 38.0604 412.867 38.3158C412.274 38.5711 411.626 38.6988 410.924 38.6988ZM410.896 36.9613C411.517 36.9613 412.055 36.8245 412.511 36.5508C412.967 36.2772 413.323 35.8987 413.578 35.4153C413.843 34.9319 413.975 34.3664 413.975 33.7188C413.975 33.2445 413.902 32.8113 413.756 32.4191C413.61 32.0268 413.4 31.6894 413.127 31.4066C412.853 31.1148 412.529 30.8913 412.155 30.7362C411.781 30.5812 411.362 30.5036 410.896 30.5036C410.294 30.5036 409.761 30.6405 409.296 30.9141C408.84 31.1786 408.479 31.5526 408.215 32.036C407.959 32.5194 407.832 33.0803 407.832 33.7188C407.832 34.2022 407.905 34.6446 408.051 35.0459C408.206 35.4472 408.416 35.7892 408.68 36.072C408.954 36.3547 409.277 36.5737 409.651 36.7287C410.035 36.8838 410.45 36.9613 410.896 36.9613ZM417.365 38.5483V28.9303H418.665L419.226 30.791V38.5483H417.365ZM424.014 38.5483L418.309 31.1604L418.665 28.9303L424.37 36.3183L424.014 38.5483ZM424.014 38.5483L423.481 36.7424V28.9303H425.355V38.5483H424.014ZM429.909 38.6852C429.134 38.6852 428.468 38.5529 427.912 38.2884C427.365 38.0239 426.868 37.6271 426.421 37.0981L427.652 35.8668C427.935 36.2407 428.263 36.5326 428.637 36.7424C429.011 36.943 429.467 37.0434 430.005 37.0434C430.489 37.0434 430.872 36.9476 431.154 36.7561C431.446 36.5645 431.592 36.3 431.592 35.9625C431.592 35.6707 431.51 35.4335 431.346 35.2511C431.182 35.0687 430.963 34.9136 430.689 34.7859C430.425 34.6582 430.128 34.5442 429.8 34.4439C429.481 34.3345 429.157 34.2113 428.829 34.0745C428.509 33.9377 428.213 33.769 427.939 33.5683C427.675 33.3585 427.461 33.094 427.296 32.7748C427.132 32.4464 427.05 32.036 427.05 31.5434C427.05 30.9597 427.191 30.4626 427.474 30.0522C427.757 29.6417 428.145 29.327 428.637 29.1081C429.13 28.8892 429.686 28.7798 430.306 28.7798C430.963 28.7798 431.556 28.9029 432.085 29.1492C432.614 29.3955 433.047 29.7147 433.385 30.1069L432.153 31.3382C431.87 31.0281 431.579 30.8001 431.278 30.6541C430.986 30.5082 430.653 30.4352 430.279 30.4352C429.85 30.4352 429.513 30.5173 429.266 30.6815C429.02 30.8457 428.897 31.0828 428.897 31.3929C428.897 31.6575 428.979 31.8718 429.143 32.036C429.308 32.2001 429.522 32.3415 429.786 32.4601C430.06 32.5787 430.356 32.6927 430.676 32.8021C431.004 32.9116 431.328 33.0347 431.647 33.1715C431.975 33.3083 432.272 33.4862 432.536 33.7051C432.81 33.924 433.029 34.2068 433.193 34.5534C433.357 34.8908 433.439 35.3104 433.439 35.8121C433.439 36.7059 433.125 37.4082 432.495 37.919C431.866 38.4298 431.004 38.6852 429.909 38.6852Z" fill="white"/>
<path d="M301.607 51.7449V50.1852H307.805V51.7449H301.607ZM303.919 47.7089H305.506V54.2076H303.919V47.7089ZM310.701 55.5483V45.9303H312.534V55.5483H310.701ZM308.813 47.5447V45.9303H312.398V47.5447H308.813ZM313.878 54.4812L317.503 50.6914C317.759 50.4178 317.964 50.1761 318.119 49.9663C318.283 49.7474 318.402 49.5422 318.475 49.3506C318.548 49.15 318.584 48.9493 318.584 48.7487C318.584 48.3473 318.452 48.0327 318.187 47.8046C317.932 47.5766 317.599 47.4626 317.189 47.4626C316.769 47.4626 316.395 47.5721 316.067 47.791C315.748 48.0099 315.447 48.3565 315.164 48.8307L313.891 47.7499C314.274 47.1023 314.749 46.6144 315.314 46.286C315.889 45.9485 316.546 45.7798 317.284 45.7798C317.914 45.7798 318.461 45.9029 318.926 46.1492C319.4 46.3955 319.765 46.7375 320.021 47.1753C320.276 47.6131 320.404 48.1239 320.404 48.7076C320.404 49.0998 320.354 49.4555 320.253 49.7748C320.162 50.094 320.002 50.4132 319.774 50.7325C319.556 51.0426 319.25 51.3937 318.858 51.7859L316.217 54.4812H313.878ZM313.878 55.5483V54.4812L315.465 53.9339H320.609V55.5483H313.878ZM322.069 55.5483V45.9303H323.383L327.282 52.169H326.529L330.415 45.9303H331.728V55.5483H329.881V49.1181L330.237 49.2275L327.528 53.5782H326.269L323.561 49.2275L323.93 49.1181V55.5483H322.069ZM333.693 55.5483V45.9303H335.007L338.906 52.169H338.153L342.039 45.9303H343.352V55.5483H341.505V49.1181L341.861 49.2275L339.152 53.5782H337.893L335.184 49.2275L335.554 49.1181V55.5483H333.693Z" fill="#076EFF"/>
<path d="M350.78 55.6852C350.005 55.6852 349.339 55.5529 348.783 55.2884C348.235 55.0239 347.738 54.6271 347.291 54.0981L348.523 52.8668C348.806 53.2407 349.134 53.5326 349.508 53.7424C349.882 53.943 350.338 54.0434 350.876 54.0434C351.359 54.0434 351.742 53.9476 352.025 53.7561C352.317 53.5645 352.463 53.3 352.463 52.9625C352.463 52.6707 352.381 52.4335 352.217 52.2511C352.053 52.0687 351.834 51.9136 351.56 51.7859C351.296 51.6582 350.999 51.5442 350.671 51.4439C350.352 51.3345 350.028 51.2113 349.699 51.0745C349.38 50.9377 349.084 50.769 348.81 50.5683C348.546 50.3585 348.331 50.094 348.167 49.7748C348.003 49.4464 347.921 49.036 347.921 48.5434C347.921 47.9597 348.062 47.4626 348.345 47.0522C348.628 46.6417 349.015 46.327 349.508 46.1081C350 45.8892 350.557 45.7798 351.177 45.7798C351.834 45.7798 352.427 45.9029 352.956 46.1492C353.485 46.3955 353.918 46.7147 354.255 47.1069L353.024 48.3382C352.741 48.0281 352.449 47.8001 352.148 47.6541C351.856 47.5082 351.524 47.4352 351.15 47.4352C350.721 47.4352 350.383 47.5173 350.137 47.6815C349.891 47.8457 349.768 48.0828 349.768 48.3929C349.768 48.6575 349.85 48.8718 350.014 49.036C350.178 49.2001 350.393 49.3415 350.657 49.4601C350.931 49.5787 351.227 49.6927 351.546 49.8021C351.875 49.9116 352.199 50.0347 352.518 50.1715C352.846 50.3083 353.143 50.4862 353.407 50.7051C353.681 50.924 353.9 51.2068 354.064 51.5534C354.228 51.8908 354.31 52.3104 354.31 52.8121C354.31 53.7059 353.995 54.4082 353.366 54.919C352.737 55.4298 351.875 55.6852 350.78 55.6852ZM355.779 55.5483V45.9303H357.639V55.5483H355.779ZM357.147 55.5483V53.9066H362.469V55.5483H357.147ZM357.147 51.4302V49.8432H361.99V51.4302H357.147ZM357.147 47.5721V45.9303H362.4V47.5721H357.147ZM366.559 55.6852C365.784 55.6852 365.118 55.5529 364.562 55.2884C364.015 55.0239 363.517 54.6271 363.071 54.0981L364.302 52.8668C364.585 53.2407 364.913 53.5326 365.287 53.7424C365.661 53.943 366.117 54.0434 366.655 54.0434C367.138 54.0434 367.522 53.9476 367.804 53.7561C368.096 53.5645 368.242 53.3 368.242 52.9625C368.242 52.6707 368.16 52.4335 367.996 52.2511C367.832 52.0687 367.613 51.9136 367.339 51.7859C367.075 51.6582 366.778 51.5442 366.45 51.4439C366.131 51.3345 365.807 51.2113 365.478 51.0745C365.159 50.9377 364.863 50.769 364.589 50.5683C364.325 50.3585 364.11 50.094 363.946 49.7748C363.782 49.4464 363.7 49.036 363.7 48.5434C363.7 47.9597 363.841 47.4626 364.124 47.0522C364.407 46.6417 364.794 46.327 365.287 46.1081C365.779 45.8892 366.336 45.7798 366.956 45.7798C367.613 45.7798 368.206 45.9029 368.735 46.1492C369.264 46.3955 369.697 46.7147 370.034 47.1069L368.803 48.3382C368.52 48.0281 368.228 47.8001 367.927 47.6541C367.636 47.5082 367.303 47.4352 366.929 47.4352C366.5 47.4352 366.163 47.5173 365.916 47.6815C365.67 47.8457 365.547 48.0828 365.547 48.3929C365.547 48.6575 365.629 48.8718 365.793 49.036C365.957 49.2001 366.172 49.3415 366.436 49.4601C366.71 49.5787 367.006 49.6927 367.325 49.8021C367.654 49.9116 367.978 50.0347 368.297 50.1715C368.625 50.3083 368.922 50.4862 369.186 50.7051C369.46 50.924 369.679 51.2068 369.843 51.5534C370.007 51.8908 370.089 52.3104 370.089 52.8121C370.089 53.7059 369.774 54.4082 369.145 54.919C368.516 55.4298 367.654 55.6852 366.559 55.6852ZM374.108 55.6852C373.333 55.6852 372.667 55.5529 372.111 55.2884C371.563 55.0239 371.066 54.6271 370.619 54.0981L371.851 52.8668C372.133 53.2407 372.462 53.5326 372.836 53.7424C373.21 53.943 373.666 54.0434 374.204 54.0434C374.687 54.0434 375.07 53.9476 375.353 53.7561C375.645 53.5645 375.791 53.3 375.791 52.9625C375.791 52.6707 375.709 52.4335 375.545 52.2511C375.381 52.0687 375.162 51.9136 374.888 51.7859C374.623 51.6582 374.327 51.5442 373.999 51.4439C373.679 51.3345 373.356 51.2113 373.027 51.0745C372.708 50.9377 372.412 50.769 372.138 50.5683C371.874 50.3585 371.659 50.094 371.495 49.7748C371.331 49.4464 371.249 49.036 371.249 48.5434C371.249 47.9597 371.39 47.4626 371.673 47.0522C371.956 46.6417 372.343 46.327 372.836 46.1081C373.328 45.8892 373.885 45.7798 374.505 45.7798C375.162 45.7798 375.754 45.9029 376.284 46.1492C376.813 46.3955 377.246 46.7147 377.583 47.1069L376.352 48.3382C376.069 48.0281 375.777 47.8001 375.476 47.6541C375.184 47.5082 374.852 47.4352 374.478 47.4352C374.049 47.4352 373.711 47.5173 373.465 47.6815C373.219 47.8457 373.096 48.0828 373.096 48.3929C373.096 48.6575 373.178 48.8718 373.342 49.036C373.506 49.2001 373.721 49.3415 373.985 49.4601C374.259 49.5787 374.555 49.6927 374.874 49.8021C375.203 49.9116 375.526 50.0347 375.846 50.1715C376.174 50.3083 376.47 50.4862 376.735 50.7051C377.009 50.924 377.228 51.2068 377.392 51.5534C377.556 51.8908 377.638 52.3104 377.638 52.8121C377.638 53.7059 377.323 54.4082 376.694 54.919C376.065 55.4298 375.203 55.6852 374.108 55.6852ZM379.106 55.5483V45.9303H380.967V55.5483H379.106ZM387.442 55.6988C386.74 55.6988 386.083 55.5711 385.472 55.3158C384.87 55.0604 384.341 54.7092 383.885 54.2623C383.438 53.8062 383.087 53.2772 382.832 52.6752C382.576 52.0641 382.448 51.412 382.448 50.7188C382.448 50.0256 382.572 49.3826 382.818 48.7897C383.073 48.1877 383.424 47.6633 383.871 47.2163C384.327 46.7603 384.856 46.4091 385.458 46.1629C386.06 45.9075 386.713 45.7798 387.415 45.7798C388.126 45.7798 388.783 45.9075 389.385 46.1629C389.987 46.4091 390.511 46.7603 390.958 47.2163C391.414 47.6633 391.77 48.1877 392.026 48.7897C392.281 49.3917 392.409 50.0393 392.409 50.7325C392.409 51.4257 392.281 52.0733 392.026 52.6752C391.77 53.2772 391.414 53.8062 390.958 54.2623C390.511 54.7092 389.987 55.0604 389.385 55.3158C388.792 55.5711 388.145 55.6988 387.442 55.6988ZM387.415 53.9613C388.035 53.9613 388.573 53.8245 389.029 53.5508C389.485 53.2772 389.841 52.8987 390.096 52.4153C390.361 51.9319 390.493 51.3664 390.493 50.7188C390.493 50.2445 390.42 49.8113 390.274 49.4191C390.128 49.0268 389.919 48.6894 389.645 48.4066C389.371 48.1148 389.048 47.8913 388.674 47.7362C388.3 47.5812 387.88 47.5036 387.415 47.5036C386.813 47.5036 386.279 47.6405 385.814 47.9141C385.358 48.1786 384.998 48.5526 384.733 49.036C384.478 49.5194 384.35 50.0803 384.35 50.7188C384.35 51.2022 384.423 51.6446 384.569 52.0459C384.724 52.4472 384.934 52.7892 385.198 53.072C385.472 53.3547 385.796 53.5737 386.17 53.7287C386.553 53.8838 386.968 53.9613 387.415 53.9613ZM393.884 55.5483V45.9303H395.183L395.744 47.791V55.5483H393.884ZM400.533 55.5483L394.828 48.1604L395.183 45.9303L400.888 53.3183L400.533 55.5483ZM400.533 55.5483L399.999 53.7424V45.9303H401.873V55.5483H400.533ZM406.428 55.6852C405.653 55.6852 404.987 55.5529 404.43 55.2884C403.883 55.0239 403.386 54.6271 402.939 54.0981L404.17 52.8668C404.453 53.2407 404.782 53.5326 405.156 53.7424C405.529 53.943 405.986 54.0434 406.524 54.0434C407.007 54.0434 407.39 53.9476 407.673 53.7561C407.965 53.5645 408.111 53.3 408.111 52.9625C408.111 52.6707 408.029 52.4335 407.864 52.2511C407.7 52.0687 407.481 51.9136 407.208 51.7859C406.943 51.6582 406.647 51.5442 406.318 51.4439C405.999 51.3345 405.675 51.2113 405.347 51.0745C405.028 50.9377 404.731 50.769 404.458 50.5683C404.193 50.3585 403.979 50.094 403.815 49.7748C403.651 49.4464 403.568 49.036 403.568 48.5434C403.568 47.9597 403.71 47.4626 403.993 47.0522C404.275 46.6417 404.663 46.327 405.156 46.1081C405.648 45.8892 406.204 45.7798 406.825 45.7798C407.481 45.7798 408.074 45.9029 408.603 46.1492C409.132 46.3955 409.566 46.7147 409.903 47.1069L408.672 48.3382C408.389 48.0281 408.097 47.8001 407.796 47.6541C407.504 47.5082 407.171 47.4352 406.797 47.4352C406.369 47.4352 406.031 47.5173 405.785 47.6815C405.539 47.8457 405.415 48.0828 405.415 48.3929C405.415 48.6575 405.498 48.8718 405.662 49.036C405.826 49.2001 406.04 49.3415 406.305 49.4601C406.578 49.5787 406.875 49.6927 407.194 49.8021C407.522 49.9116 407.846 50.0347 408.165 50.1715C408.494 50.3083 408.79 50.4862 409.055 50.7051C409.328 50.924 409.547 51.2068 409.711 51.5534C409.876 51.8908 409.958 52.3104 409.958 52.8121C409.958 53.7059 409.643 54.4082 409.014 54.919C408.384 55.4298 407.522 55.6852 406.428 55.6852Z" fill="white"/>
<path d="M287.137 68.7449V67.1852H293.335V68.7449H287.137ZM289.45 64.7089H291.037V71.2076H289.45V64.7089ZM296.231 72.5483V62.9303H298.065V72.5483H296.231ZM294.343 64.5447V62.9303H297.928V64.5447H294.343ZM299.394 69.1553L302.678 62.9303H304.73L301.364 69.1553H299.394ZM299.394 70.2499V69.1553L300.078 68.6218H306.974V70.2499H299.394ZM303.937 72.5483V66.4191H305.77V72.5483H303.937ZM308.294 72.5483V62.9303H309.608L313.507 69.169H312.754L316.64 62.9303H317.953V72.5483H316.106V66.1181L316.462 66.2275L313.753 70.5782H312.495L309.786 66.2275L310.155 66.1181V72.5483H308.294ZM319.918 72.5483V62.9303H321.232L325.131 69.169H324.378L328.264 62.9303H329.577V72.5483H327.73V66.1181L328.086 66.2275L325.377 70.5782H324.118L321.409 66.2275L321.779 66.1181V72.5483H319.918Z" fill="#076EFF"/>
<path d="M334.214 72.5483V62.9303H336.075V72.5483H334.214ZM340.653 72.6852C339.877 72.6852 339.212 72.5529 338.655 72.2884C338.108 72.0239 337.611 71.6271 337.164 71.0981L338.395 69.8668C338.678 70.2407 339.006 70.5326 339.38 70.7424C339.754 70.943 340.21 71.0434 340.749 71.0434C341.232 71.0434 341.615 70.9476 341.898 70.7561C342.19 70.5645 342.336 70.3 342.336 69.9625C342.336 69.6707 342.253 69.4335 342.089 69.2511C341.925 69.0687 341.706 68.9136 341.433 68.7859C341.168 68.6582 340.872 68.5442 340.543 68.4439C340.224 68.3345 339.9 68.2113 339.572 68.0745C339.253 67.9377 338.956 67.769 338.683 67.5683C338.418 67.3585 338.204 67.094 338.04 66.7748C337.875 66.4464 337.793 66.036 337.793 65.5434C337.793 64.9597 337.935 64.4626 338.217 64.0522C338.5 63.6417 338.888 63.327 339.38 63.1081C339.873 62.8892 340.429 62.7798 341.05 62.7798C341.706 62.7798 342.299 62.9029 342.828 63.1492C343.357 63.3955 343.79 63.7147 344.128 64.1069L342.897 65.3382C342.614 65.0281 342.322 64.8001 342.021 64.6541C341.729 64.5082 341.396 64.4352 341.022 64.4352C340.593 64.4352 340.256 64.5173 340.01 64.6815C339.763 64.8457 339.64 65.0828 339.64 65.3929C339.64 65.6575 339.722 65.8718 339.887 66.036C340.051 66.2001 340.265 66.3415 340.53 66.4601C340.803 66.5787 341.1 66.6927 341.419 66.8021C341.747 66.9116 342.071 67.0347 342.39 67.1715C342.719 67.3083 343.015 67.4862 343.28 67.7051C343.553 67.924 343.772 68.2068 343.936 68.5534C344.1 68.8908 344.183 69.3104 344.183 69.8121C344.183 70.7059 343.868 71.4082 343.239 71.919C342.609 72.4298 341.747 72.6852 340.653 72.6852ZM348.202 72.6852C347.426 72.6852 346.76 72.5529 346.204 72.2884C345.657 72.0239 345.16 71.6271 344.713 71.0981L345.944 69.8668C346.227 70.2407 346.555 70.5326 346.929 70.7424C347.303 70.943 347.759 71.0434 348.297 71.0434C348.781 71.0434 349.164 70.9476 349.447 70.7561C349.738 70.5645 349.884 70.3 349.884 69.9625C349.884 69.6707 349.802 69.4335 349.638 69.2511C349.474 69.0687 349.255 68.9136 348.981 68.7859C348.717 68.6582 348.42 68.5442 348.092 68.4439C347.773 68.3345 347.449 68.2113 347.121 68.0745C346.802 67.9377 346.505 67.769 346.231 67.5683C345.967 67.3585 345.753 67.094 345.588 66.7748C345.424 66.4464 345.342 66.036 345.342 65.5434C345.342 64.9597 345.484 64.4626 345.766 64.0522C346.049 63.6417 346.437 63.327 346.929 63.1081C347.422 62.8892 347.978 62.7798 348.598 62.7798C349.255 62.7798 349.848 62.9029 350.377 63.1492C350.906 63.3955 351.339 63.7147 351.677 64.1069L350.445 65.3382C350.163 65.0281 349.871 64.8001 349.57 64.6541C349.278 64.5082 348.945 64.4352 348.571 64.4352C348.142 64.4352 347.805 64.5173 347.559 64.6815C347.312 64.8457 347.189 65.0828 347.189 65.3929C347.189 65.6575 347.271 65.8718 347.435 66.036C347.6 66.2001 347.814 66.3415 348.078 66.4601C348.352 66.5787 348.649 66.6927 348.968 66.8021C349.296 66.9116 349.62 67.0347 349.939 67.1715C350.267 67.3083 350.564 67.4862 350.828 67.7051C351.102 67.924 351.321 68.2068 351.485 68.5534C351.649 68.8908 351.731 69.3104 351.731 69.8121C351.731 70.7059 351.417 71.4082 350.787 71.919C350.158 72.4298 349.296 72.6852 348.202 72.6852ZM357.15 72.6852C356.393 72.6852 355.718 72.521 355.125 72.1926C354.541 71.8551 354.081 71.3945 353.743 70.8108C353.406 70.2271 353.237 69.5658 353.237 68.827V62.9303H355.098V68.8817C355.098 69.3104 355.184 69.6798 355.358 69.9899C355.54 70.3 355.786 70.5417 356.097 70.715C356.416 70.8792 356.767 70.9613 357.15 70.9613C357.542 70.9613 357.889 70.8792 358.19 70.715C358.491 70.5417 358.728 70.3 358.901 69.9899C359.084 69.6798 359.175 69.315 359.175 68.8954V62.9303H361.049V68.8407C361.049 69.5795 360.88 70.2407 360.543 70.8245C360.206 71.3991 359.745 71.8551 359.161 72.1926C358.587 72.521 357.916 72.6852 357.15 72.6852ZM362.886 72.5483V62.9303H364.747V72.5483H362.886ZM364.255 72.5483V70.9066H369.577V72.5483H364.255ZM364.255 68.4302V66.8432H369.098V68.4302H364.255ZM364.255 64.5721V62.9303H369.508V64.5721H364.255ZM372.389 72.5483V70.8929H374.838C375.458 70.8929 376.001 70.7652 376.466 70.5098C376.931 70.2453 377.292 69.8759 377.547 69.4016C377.812 68.9273 377.944 68.3664 377.944 67.7188C377.944 67.0894 377.812 66.5422 377.547 66.077C377.283 65.6027 376.918 65.2379 376.452 64.9825C375.987 64.718 375.449 64.5857 374.838 64.5857H372.348V62.9303H374.865C375.577 62.9303 376.234 63.0489 376.836 63.286C377.447 63.5231 377.976 63.8606 378.423 64.2984C378.879 64.7271 379.23 65.2333 379.476 65.8171C379.731 66.4008 379.859 67.0393 379.859 67.7325C379.859 68.4257 379.731 69.0687 379.476 69.6616C379.23 70.2453 378.883 70.7561 378.436 71.1939C377.989 71.6226 377.46 71.9555 376.849 72.1926C376.247 72.4298 375.595 72.5483 374.893 72.5483H372.389ZM371.117 72.5483V62.9303H372.977V72.5483H371.117ZM382.911 72.5483L386.783 62.9303H388.301L392.16 72.5483H390.176L387.193 64.6541H387.877L384.854 72.5483H382.911ZM384.963 70.7561V69.1964H390.135V70.7561H384.963ZM393.296 72.5483V62.9303H395.156V72.5483H393.296ZM394.664 72.5483V70.8929H399.562V72.5483H394.664ZM400.898 72.5483V62.9303H402.759V72.5483H400.898ZM402.266 72.5483V70.9066H407.588V72.5483H402.266ZM402.266 68.4302V66.8432H407.109V68.4302H402.266ZM402.266 64.5721V62.9303H407.52V64.5721H402.266ZM410.496 68.526V67.0758H412.726C413.182 67.0758 413.534 66.9617 413.78 66.7337C414.035 66.4966 414.163 66.1728 414.163 65.7623C414.163 65.3884 414.035 65.0783 413.78 64.832C413.534 64.5766 413.182 64.4489 412.726 64.4489H410.496V62.9303H412.891C413.511 62.9303 414.053 63.0534 414.519 63.2997C414.993 63.5368 415.358 63.8652 415.613 64.2847C415.878 64.7043 416.01 65.1877 416.01 65.735C416.01 66.3005 415.878 66.793 415.613 67.2126C415.358 67.623 414.993 67.9468 414.519 68.184C414.044 68.412 413.493 68.526 412.863 68.526H410.496ZM409.128 72.5483V62.9303H410.989V72.5483H409.128ZM414.382 72.5483L411.208 68.3892L412.918 67.8556L416.639 72.5483H414.382ZM419.672 72.5483V63.1355H421.547V72.5483H419.672ZM416.608 64.5857V62.9303H424.611V64.5857H416.608Z" fill="white"/>
</g>
<defs>
<radialGradient id="paint0_radial_1018_10" cx="0" cy="0" r="1" gradientTransform="matrix(-0.448113 36.2189 -73.4901 -0.90533 121.06 3.28463)" gradientUnits="userSpaceOnUse">
<stop stop-color="#001141"/>
<stop offset="1" stop-color="#000927"/>
</radialGradient>
<linearGradient id="paint1_linear_1018_10" x1="370.667" y1="57.154" x2="323.718" y2="22.5934" gradientUnits="userSpaceOnUse">
<stop stop-color="#012455"/>
<stop offset="1" stop-color="#000927"/>
</linearGradient>
<linearGradient id="paint2_linear_1018_10" x1="456.392" y1="55.0529" x2="395.008" y2="75.2142" gradientUnits="userSpaceOnUse">
<stop stop-color="#000927"/>
<stop offset="1" stop-color="#012455"/>
</linearGradient>
<clipPath id="clip0_1018_10">
<rect width="469" height="84.825" rx="9.85064" fill="white"/>
</clipPath>
</defs>
</svg>
