<svg width="30" height="30" viewBox="0 0 30 30" fill="none" xmlns="http://www.w3.org/2000/svg">
<rect x="0.683664" y="0.683664" width="28.6327" height="28.6327" rx="14.3163" stroke="black" stroke-width="1.36733"/>
<g clip-path="url(#clip0_1098_2)">
<path d="M20.6333 20.6337H18.2625V16.9207C18.2625 16.0353 18.2467 14.8959 17.0293 14.8959C15.7946 14.8959 15.6054 15.8602 15.6054 16.8569V20.6337H13.2353V12.9981H15.5116V14.0412H15.5431C16.0075 13.248 16.8701 12.7741 17.7886 12.808C20.1918 12.808 20.6341 14.3889 20.6341 16.4445L20.6333 20.6337ZM10.5601 11.9541C9.80003 11.9541 9.18425 11.3383 9.18425 10.5782C9.18425 9.81813 9.80003 9.20233 10.5601 9.20233C11.3202 9.20233 11.9359 9.81813 11.9359 10.5782C11.9359 11.3383 11.3202 11.9541 10.5601 11.9541ZM11.7451 20.6337H9.3719V12.9981H11.7451V20.6337ZM21.8152 7.0009H8.18055C7.53639 6.9938 7.00813 7.51025 7.00024 8.15444V21.8456C7.00813 22.4906 7.53639 23.007 8.18055 22.9999H21.8152C22.4609 23.0078 22.9916 22.4913 23.0002 21.8456V8.15365C22.9908 7.50789 22.4602 6.99143 21.8152 7.00011" fill="black"/>
</g>
<defs>
<clipPath id="clip0_1098_2">
<rect width="16" height="16" fill="white" transform="translate(7.00024 7)"/>
</clipPath>
</defs>
</svg>
