<svg width="30" height="30" viewBox="0 0 30 30" fill="none" xmlns="http://www.w3.org/2000/svg">
<rect x="0.683664" y="0.683664" width="28.6327" height="28.6327" rx="14.3163" stroke="black" stroke-width="1.36733"/>
<g clip-path="url(#clip0_1098_5)">
<path d="M24 18.3182C24.005 18.5917 23.8527 18.8424 23.6083 18.965L20.986 20.2761L19.6749 22.8983C19.5545 23.1385 19.3087 23.29 19.041 23.29H19.0275C18.7541 23.2851 18.509 23.1236 18.3957 22.875L15.602 16.7302C15.4001 16.1515 15.529 15.5919 15.9151 15.2065C16.3004 14.8205 16.86 14.693 17.3757 14.8672C17.3969 14.875 23.5842 17.6864 23.5842 17.6864C23.8328 17.799 23.995 18.0448 24 18.3182ZM16.3096 21.539C16.5781 21.8542 16.6383 22.297 16.4648 22.6731C16.2905 23.0492 15.9144 23.29 15.5 23.29C10.813 23.29 7 19.4771 7 14.79C7 10.1342 10.8555 6.33962 15.5 6.29004C20.187 6.29004 24 10.103 24 14.79C24 15.3772 23.5247 15.8525 22.9375 15.8525C22.3503 15.8525 21.875 15.3772 21.875 14.79C21.875 12.0658 20.1537 9.74104 17.744 8.83083C18.2639 9.78637 18.8001 11.0054 19.1139 12.3909C19.2931 13.1828 18.5118 13.8572 17.744 13.5944C17.3962 13.4754 17.1221 13.192 17.0399 12.8343C16.6971 11.3383 16.0355 10.0577 15.5014 9.19633C14.7442 10.4196 13.7292 12.488 13.7292 14.79C13.7292 18.4649 16.2834 21.5086 16.3096 21.539ZM9.22062 13.7275H11.6594C11.8592 11.7902 12.5689 10.0839 13.2517 8.83225C11.165 9.62275 9.60171 11.4736 9.22062 13.7275ZM13.2553 20.757C12.5718 19.5054 11.8655 17.7927 11.6651 15.8525H9.21567C9.59604 18.1093 11.165 19.968 13.2553 20.757Z" fill="black"/>
</g>
<defs>
<clipPath id="clip0_1098_5">
<rect width="17" height="17" fill="white" transform="translate(7 6.29004)"/>
</clipPath>
</defs>
</svg>
